<?xml version="1.0" encoding="UTF-8" standalone="no"?>
<!DOCTYPE svg PUBLIC "-//W3C//DTD SVG 1.1//EN" "http://www.w3.org/Graphics/SVG/1.1/DTD/svg11.dtd">
<!-- Created with Vectornator (http://vectornator.io/) -->
<svg height="100%" stroke-miterlimit="10" style="fill-rule:nonzero;clip-rule:evenodd;stroke-linecap:round;stroke-linejoin:round;" version="1.1" viewBox="0 0 2048 2048" width="100%" xml:space="preserve" xmlns="http://www.w3.org/2000/svg" xmlns:vectornator="http://vectornator.io" xmlns:xlink="http://www.w3.org/1999/xlink">
<defs/>
<g id="Main-logo--old" vectornator:layerName="Main logo -old" visibility="hidden">
<path d="M521.369 935.305L278.472 854.917L128.353 644.46L128.353 384.32L278.472 173.862L521.369 93.4746L764.266 173.862L914.385 384.32L914.385 644.46L764.266 854.917L521.369 935.305Z" fill="none" opacity="1" stroke="#000000" stroke-linecap="butt" stroke-linejoin="miter" stroke-width="120"/>
<path d="M620.171 681.821L742.388 845.058" fill="none" opacity="1" stroke="#000000" stroke-linecap="butt" stroke-linejoin="round" stroke-width="120" vectornator:layerName="Curve 2"/>
<path d="M235.084 166.352L363.828 344.564L531.333 576.431" fill="none" opacity="1" stroke="#000000" stroke-linecap="butt" stroke-linejoin="round" stroke-width="120"/>
<path d="M777.051 173.68L276.214 864.962" fill="none" opacity="1" stroke="#000000" stroke-linecap="butt" stroke-linejoin="round" stroke-width="120"/>
<path d="M491.199 712.758C491.934 712.873 652.869 490.126 652.869 490.126" fill="none" opacity="0" stroke="#ffffff" stroke-linecap="butt" stroke-linejoin="round" stroke-width="50"/>
<path d="M578.448 726.012L549.585 687.618L624.028 586.309L669.944 648.275L578.448 726.012Z" fill="#000000" fill-rule="nonzero" opacity="1" stroke="#000000" stroke-linecap="butt" stroke-linejoin="round" stroke-width="0.1" vectornator:layerName="Curve 3"/>
</g>
<clipPath id="ArtboardFrame">
<rect height="2048" width="2048" x="0" y="0"/>
</clipPath>
<g clip-path="url(#ArtboardFrame)" id="logo-black" vectornator:layerName="logo black">
<g opacity="1" vectornator:layerName="logo symbol 1">
<path d="M1027.64 6.1542L393.8 201.926L4.06088 714.386L4.06088 1345.84L393.8 1858.3L1027.64 2054.08L1029.69 2054.08L1029.69 1785.37C1029.41 1785.46 1027.91 1785.29 1027.64 1785.37L732.258 1693.24L1029.69 1309.38L1029.69 869.851L1025.59 875.609L806.103 597.307L648.156 391.939L1027.64 274.86L1029.69 274.86L1029.69 6.1542L1027.64 6.1542ZM449.184 570.436C516.82 658.038 584.436 746.849 584.567 747.015L857.385 1094.41L500.466 1556.97L276.878 1263.31L276.878 796.917L449.184 570.436Z" fill="#2e2e2e" fill-rule="nonzero" opacity="1" stroke="none" vectornator:layerName="Curve 31"/>
<path d="M1028.48 6.07636L1028.48 274.782L1401.81 389.942L1026.43 875.532L1026.43 1309.3L1602.84 564.601L1779.24 796.839L1779.24 1265.16L1559.76 1553.05L1262.33 1173.03L1090.02 1389.91L1334.12 1689.33C1212.21 1727.19 1073 1771.51 1028.48 1785.29L1028.48 2054L1662.32 1858.23L2052.06 1347.69L2052.06 714.308L1662.32 201.848L1028.48 6.07636Z" fill="#414141" fill-rule="nonzero" opacity="1" stroke="none" vectornator:layerName="Curve 30"/>
</g>
</g>
<g clip-path="url(#ArtboardFrame)" id="Logo-white" vectornator:layerName="Logo white" visibility="hidden">
<g opacity="1" vectornator:layerName="logo symbol">
<path d="M1027.64 6.08325L393.8 201.855L4.06088 714.315L4.06088 1345.77L393.8 1858.23L1027.64 2054.01L1029.69 2054.01L1029.69 1785.3C1029.41 1785.39 1027.91 1785.22 1027.64 1785.3L732.258 1693.17L1029.69 1309.31L1029.69 869.781L1025.59 875.538L806.103 597.236L648.156 391.868L1027.64 274.789L1029.69 274.789L1029.69 6.08325L1027.64 6.08325ZM449.184 570.365C516.82 657.967 584.436 746.778 584.567 746.944L857.385 1094.34L500.466 1556.9L276.878 1263.24L276.878 796.846L449.184 570.365Z" fill="#ffffff" fill-rule="nonzero" opacity="1" stroke="none" vectornator:layerName="Curve 31"/>
<path d="M1028.48 6.00542L1028.48 274.711L1401.81 389.871L1026.43 875.461L1026.43 1309.23L1602.84 564.53L1779.24 796.768L1779.24 1265.08L1559.76 1552.98L1262.33 1172.96L1090.02 1389.84L1334.12 1689.26C1212.21 1727.12 1073 1771.44 1028.48 1785.22L1028.48 2053.93L1662.32 1858.16L2052.06 1347.62L2052.06 714.237L1662.32 201.777L1028.48 6.00542Z" fill="#e8e8e8" fill-rule="nonzero" opacity="1" stroke="none" vectornator:layerName="Curve 30"/>
</g>
</g>
<g id="copyright" vectornator:layerName="copyright">
<path d="M1925.54 182.535C1925.62 185.701 1925.21 189.014 1924.29 192.472C1923.37 195.931 1921.79 199.097 1919.54 201.972C1917.29 204.847 1914.31 207.201 1910.6 209.035C1906.9 210.868 1902.37 211.785 1897.04 211.785C1893.04 211.785 1889.5 211.139 1886.42 209.847C1883.33 208.556 1880.67 206.889 1878.42 204.847C1876.17 202.806 1874.27 200.451 1872.73 197.785C1871.19 195.118 1869.96 192.368 1869.04 189.535C1868.12 186.701 1867.44 183.889 1866.98 181.097C1866.52 178.306 1866.29 175.743 1866.29 173.41L1866.29 167.41C1866.29 165.076 1866.52 162.556 1866.98 159.847C1867.44 157.139 1868.12 154.41 1869.04 151.66C1869.96 148.91 1871.19 146.243 1872.73 143.66C1874.27 141.076 1876.19 138.785 1878.48 136.785C1880.77 134.785 1883.44 133.181 1886.48 131.972C1889.52 130.764 1893.04 130.16 1897.04 130.16C1902.37 130.16 1906.9 131.014 1910.6 132.722C1914.31 134.431 1917.29 136.639 1919.54 139.347C1921.79 142.056 1923.4 145.076 1924.35 148.41C1925.31 151.743 1925.75 154.993 1925.67 158.16L1919.67 158.16C1919.33 155.91 1918.83 153.535 1918.17 151.035C1917.5 148.535 1916.37 146.222 1914.79 144.097C1913.21 141.972 1911 140.222 1908.17 138.847C1905.33 137.472 1901.62 136.785 1897.04 136.785C1892.12 136.785 1888.12 137.889 1885.04 140.097C1881.96 142.306 1879.52 144.993 1877.73 148.16C1875.94 151.326 1874.71 154.66 1874.04 158.16C1873.37 161.66 1873.04 164.701 1873.04 167.285L1873.04 173.41C1873.12 176.076 1873.48 179.201 1874.1 182.785C1874.73 186.368 1875.92 189.785 1877.67 193.035C1879.42 196.285 1881.85 199.056 1884.98 201.347C1888.1 203.639 1892.12 204.826 1897.04 204.91C1901.62 204.993 1905.33 204.285 1908.17 202.785C1911 201.285 1913.21 199.41 1914.79 197.16C1916.37 194.91 1917.5 192.472 1918.17 189.847C1918.83 187.222 1919.29 184.785 1919.54 182.535L1925.54 182.535ZM1837.29 170.66C1837.29 175.326 1837.81 180.16 1838.85 185.16C1839.9 190.16 1841.48 195.056 1843.6 199.847C1845.73 204.639 1848.42 209.181 1851.67 213.472C1854.92 217.764 1858.79 221.535 1863.29 224.785C1867.79 228.035 1872.9 230.597 1878.6 232.472C1884.31 234.347 1890.71 235.285 1897.79 235.285C1904.79 235.285 1911.17 234.326 1916.92 232.41C1922.67 230.493 1927.77 227.931 1932.23 224.722C1936.69 221.514 1940.54 217.764 1943.79 213.472C1947.04 209.181 1949.73 204.639 1951.85 199.847C1953.98 195.056 1955.56 190.16 1956.6 185.16C1957.65 180.16 1958.17 175.326 1958.17 170.66C1958.17 166.16 1957.65 161.493 1956.6 156.66C1955.56 151.826 1953.98 147.097 1951.85 142.472C1949.73 137.847 1947.04 133.451 1943.79 129.285C1940.54 125.118 1936.67 121.472 1932.17 118.347C1927.67 115.222 1922.56 112.743 1916.85 110.91C1911.15 109.076 1904.79 108.16 1897.79 108.16C1890.79 108.16 1884.42 109.076 1878.67 110.91C1872.92 112.743 1867.81 115.222 1863.35 118.347C1858.9 121.472 1855.02 125.118 1851.73 129.285C1848.44 133.451 1845.73 137.847 1843.6 142.472C1841.48 147.097 1839.9 151.826 1838.85 156.66C1837.81 161.493 1837.29 166.16 1837.29 170.66ZM1830.42 170.66C1830.42 165.493 1831 160.201 1832.17 154.785C1833.33 149.368 1835.12 144.076 1837.54 138.91C1839.96 133.743 1843 128.889 1846.67 124.347C1850.33 119.806 1854.67 115.826 1859.67 112.41C1864.67 108.993 1870.33 106.285 1876.67 104.285C1883 102.285 1890.04 101.285 1897.79 101.285C1905.54 101.285 1912.58 102.285 1918.92 104.285C1925.25 106.285 1930.9 108.993 1935.85 112.41C1940.81 115.826 1945.12 119.806 1948.79 124.347C1952.46 128.889 1955.5 133.743 1957.92 138.91C1960.33 144.076 1962.12 149.368 1963.29 154.785C1964.46 160.201 1965.04 165.493 1965.04 170.66C1965.04 175.993 1964.46 181.472 1963.29 187.097C1962.12 192.722 1960.33 198.181 1957.92 203.472C1955.5 208.764 1952.48 213.764 1948.85 218.472C1945.23 223.181 1940.92 227.285 1935.92 230.785C1930.92 234.285 1925.25 237.056 1918.92 239.097C1912.58 241.139 1905.54 242.16 1897.79 242.16C1890.04 242.16 1883 241.139 1876.67 239.097C1870.33 237.056 1864.67 234.264 1859.67 230.722C1854.67 227.181 1850.33 223.076 1846.67 218.41C1843 213.743 1839.96 208.764 1837.54 203.472C1835.12 198.181 1833.33 192.722 1832.17 187.097C1831 181.472 1830.42 175.993 1830.42 170.66Z" fill="#414141" opacity="1" stroke="none" vectornator:layerName="copyright 1"/>
</g>
</svg>
